<?xml version="1.0" encoding="UTF-8" standalone="no"?>
<!-- Created with Inkscape (http://www.inkscape.org/) -->

<svg
   width="210mm"
   height="297mm"
   viewBox="0 0 210 297"
   version="1.1"
   id="svg1"
   xml:space="preserve"
   inkscape:version="1.3.2 (091e20ef0f, 2023-11-25, custom)"
   sodipodi:docname="logo.svg"
   xmlns:inkscape="http://www.inkscape.org/namespaces/inkscape"
   xmlns:sodipodi="http://sodipodi.sourceforge.net/DTD/sodipodi-0.dtd"
   xmlns="http://www.w3.org/2000/svg"
   xmlns:svg="http://www.w3.org/2000/svg"><sodipodi:namedview
     id="namedview1"
     pagecolor="#ffffff"
     bordercolor="#000000"
     borderopacity="0.25"
     inkscape:showpageshadow="2"
     inkscape:pageopacity="0.0"
     inkscape:pagecheckerboard="0"
     inkscape:deskcolor="#d1d1d1"
     inkscape:document-units="mm"
     inkscape:zoom="0.978778"
     inkscape:cx="614.03097"
     inkscape:cy="436.25827"
     inkscape:window-width="2184"
     inkscape:window-height="1364"
     inkscape:window-x="0"
     inkscape:window-y="0"
     inkscape:window-maximized="0"
     inkscape:current-layer="layer1" /><defs
     id="defs1"><rect
       x="357.37716"
       y="559.00079"
       width="330.246"
       height="152.49344"
       id="rect1" /></defs><g
     inkscape:label="Layer 1"
     inkscape:groupmode="layer"
     id="layer1"><g
       id="g2"
       transform="translate(12.579109,-49.755259)"
       inkscape:export-filename="logo.png"
       inkscape:export-xdpi="96"
       inkscape:export-ydpi="96"><g
         transform="matrix(0.26458333,0,0,0.26458333,-15.490918,116.79469)"
         id="layer3-1"
         style="display:inline"><g
           id="layer5-5"><path
             d="m 264.513,77.977773 -4.917,19.529001 c 6.965,-13.793001 18.027,-24.172001 30.729,-33.323001 -9.287,10.789 -17.754,21.579001 -22.944,32.368001 8.741,-12.292001 20.486,-19.120001 33.733,-23.627001 -17.618,15.706001 -31.60228,32.559277 -42.25528,49.494277 l -8.467,-3.687 c 1.501,-13.521 6.60928,-27.369276 14.12128,-40.754277 z"
             id="path2554-9"
             style="fill:#abcd03" /><path
             d="m 241.90113,115.14152 16.116,6.68594 c 0,4.098 -0.33313,16.59703 2.22938,20.28403 26.80289,34.5191 22.29349,103.71329 -5.42951,105.48829 -42.21656,0 -58.317,-28.679 -58.317,-55.03801 0,-24.037 28.816,-40.016 46.025,-54.219 4.37,-3.824 3.61113,-12.27525 -0.62387,-23.20125 z"
             id="path2534-7"
             style="fill:#fffcdb" /><path
             d="m 258.02197,121.58695 5.80803,2.96282 c -0.546,3.823 0.273,12.292 4.096,14.476 16.936,10.516 32.914,21.988 39.197,33.46 22.398,40.42601 -15.706,77.84601 -48.62,74.29501 17.891,-13.248 23.081,-40.42501 16.389,-70.06201 -2.731,-11.609 -6.966,-22.125 -14.478,-34.007 -3.25421,-5.83246 -2.11803,-13.06582 -2.39203,-21.12482 z"
             id="path2536-7"
             style="fill:#7d4698" /></g><g
           id="layer4-6"
           style="display:inline"><path
             d="m 255.226,120.58877 12.018,1.639 c -3.551,11.745 6.966,19.939 10.38,21.852 7.64801,4.234 15.02301,8.604 20.89601,13.93 11.063,10.106 17.345,24.31 17.345,39.333 0,14.886 -6.829,29.226 -18.301,38.786 -10.789,9.014 -25.67501,12.838 -40.15201,12.838 -9.014,0 -17.072,-0.409 -25.812,-3.278 -19.939,-6.692 -34.826,-23.763 -36.055,-44.25 -1.093,-15.979 2.458,-28.134 14.887,-40.835 6.418,-6.692 19.393,-14.34 28.271,-20.486 4.371,-3.005 9.014,-11.473 0.136,-27.451 l 1.776,-1.366 13.15659,8.81203 -11.10759,-4.57803 c 0.956,1.366 3.551,7.512 4.098,9.287 1.229,5.053 0.683,9.971 -0.41,12.155 -5.599,10.107 -15.159,12.838 -22.124,18.574 -12.292,10.106 -25.676,18.164 -24.174,45.888 0.683,13.657 11.336,30.319 27.314,38.104 9.014,4.371 19.394,6.146 29.91,6.692 9.423,0.41 27.45101,-5.19 37.28401,-13.384 10.516,-8.74 16.389,-21.988 16.389,-35.508 0,-13.658 -5.463,-26.632 -15.706,-35.783 -5.873,-5.326 -15.56901,-11.745 -21.57801,-15.16 -6.009,-3.414 -13.521,-12.974 -11.063,-22.124 z"
             id="path2538-7" /><path
             d="m 251.539,140.80177 c -1.229,6.283 -2.595,17.618 -8.058,21.852 -2.322,1.638 -4.644,3.278 -7.102,4.916 -9.833,6.693 -19.667,12.974 -24.173,29.09 -0.956,3.415 -0.136,7.102 0.684,10.516 2.458,9.833 9.423,20.486 14.886,26.769 0,0.273 1.093,0.956 1.093,1.229 4.507,5.327 5.873,6.829 22.944,10.652 l -0.41,1.913 c -10.243,-2.731 -18.71,-5.189 -24.037,-11.336 0,-0.136 -0.956,-1.093 -0.956,-1.093 -5.736,-6.556 -12.702,-17.481 -15.296,-27.724 -0.956,-4.098 -1.775,-7.238 -0.683,-11.473 4.643,-16.661 14.75,-23.217 24.993,-30.182 2.322,-1.502 5.053,-2.869 7.238,-4.644 4.233,-3.14 6.554,-12.701 8.877,-20.485 z"
             id="path2540-3" /><path
             d="m 255.90625,166.74951 c 0.137,7.102 -0.55625,10.66475 1.21875,15.71875 1.092,3.004 4.782,7.1015 5.875,11.0625 1.502,5.327 3.138,11.19901 3,14.75001 0,4.09799 -0.25625,11.74249 -2.03125,19.93749 -1.35362,6.77108 -4.47323,12.58153 -9.71875,15.875 -5.37327,-1.10644 -11.68224,-2.99521 -15.40625,-6.1875 -7.238,-6.282 -13.64875,-16.7865 -14.46875,-25.9375 -0.682,-7.51099 6.27275,-18.5885 15.96875,-24.1875 8.194,-4.78 10.1,-10.22775 11.875,-18.96875 -2.458,7.648 -4.7665,14.05925 -12.6875,18.15625 -11.472,6.009 -17.3585,16.09626 -16.8125,25.65625 0.819,12.291 5.7415,20.6195 15.4375,27.3125 4.097,2.868 11.75125,5.89875 16.53125,6.71875 v -0.625 c 3.62493,-0.67888 8.31818,-6.63267 10.65625,-14.6875 2.049,-7.238 2.85675,-16.502 2.71875,-22.37499 -0.137,-3.414 -1.643,-10.80801 -4.375,-17.50001 -1.502,-3.687 -3.8095,-7.37375 -5.3125,-9.96875 -1.637,-2.597 -1.64875,-8.195 -2.46875,-14.75 z"
             id="path2542-6" /><path
             d="m 255.09375,193.53076 c 0.136,4.78 2.056,10.90451 2.875,17.18751 0.684,4.64399 0.387,9.30824 0.25,13.40624 -0.13495,4.74323 -1.7152,13.24218 -3.875,17.375 -2.03673,-0.93403 -2.83294,-1.99922 -4.15625,-3.71875 -1.638,-2.322 -2.75075,-4.644 -3.84375,-7.375 -0.819,-2.049 -1.7765,-4.394 -2.1875,-7.125 -0.546,-4.097 -0.393,-10.5065 4.25,-17.06249 3.551,-5.19001 4.36475,-5.58476 5.59375,-11.59376 -1.64,5.326 -2.8625,5.869 -6.6875,10.37501 -4.233,4.917 -4.9375,12.15924 -4.9375,18.03124 0,2.459 0.9805,5.18725 1.9375,7.78125 1.092,2.732 2.02925,5.452 3.53125,7.5 2.25796,3.32082 5.14798,5.20922 6.5625,5.5625 0.009,0.002 0.022,-0.002 0.0312,0 0.0303,0.007 0.0649,0.0255 0.0937,0.0312 v -0.15625 c 2.64982,-2.95437 4.24444,-5.88934 4.78125,-8.84375 0.683,-3.551 0.84,-7.10975 1.25,-11.34375 0.409,-3.551 0.11225,-8.334 -0.84375,-13.24999 -1.365,-6.146 -3.669,-12.41226 -4.625,-16.78126 z"
             id="path2544-5" /><path
             d="m 255.499,135.06577 c 0.137,7.101 0.683,20.35 2.595,25.539 0.546,1.775 5.599,9.56 9.149,18.983 2.459,6.556 3.005,12.565 3.415,14.34 1.639,7.785 -0.41,20.896 -3.142,33.324 -1.365,6.692 -6.009,15.023 -11.335,18.301 l -1.092,1.912 c 3.005,-0.137 10.379,-7.375 12.974,-16.389 4.371,-15.296 6.146,-22.398 4.098,-39.333 -0.273,-1.64 -0.956,-7.238 -3.551,-13.248 -3.824,-9.151 -9.287,-17.891 -9.969,-19.667 -1.23,-2.867 -2.869,-15.295 -3.142,-23.762 z"
             id="path2550-6" /><path
             d="m 258.06151,125.35303 c -0.40515,7.29812 -0.51351,9.98574 0.85149,15.31174 1.502,5.873 9.151,14.34 12.292,24.037 6.009,18.574 4.507,42.884 0.136,61.867 -1.638,6.691 -9.424,16.389 -17.208,19.529 l 5.736,1.366 c 3.141,-0.137 11.198,-7.648 14.34,-16.252 5.052,-13.521 6.009,-29.636 3.96,-46.571 -0.137,-1.639 -2.869,-16.252 -5.463,-22.398 -3.688,-9.15 -10.244,-17.345 -10.926,-19.119 -1.228,-3.005 -3.92651,-9.24362 -3.71849,-17.77074 z"
             id="path2552-3" /><rect
             width="0.550412"
             height="126.01891"
             x="253.71959"
             y="120.21686"
             id="rect2556-9" /></g></g><path
         d="m 10.952333,138.5103 h 29.016325 c 1.083733,0 2.023269,0.90329 2.023269,2.02354 v 8.56376 c 0,1.12025 -0.939536,2.0238 -2.023269,2.0238 h -5.962121 c -1.337204,0 -1.915319,0.75856 -1.915319,1.62587 v 28.04054 c 0,0.93954 -0.758824,1.66211 -1.662112,1.66211 h -9.864725 c -0.903552,0 -1.626129,-0.72257 -1.626129,-1.66211 v -28.29322 c 0,-0.8673 -0.795073,-1.37292 -1.409171,-1.37292 h -6.576748 c -1.1202451,0 -2.0235331,-0.90355 -2.0235331,-2.0238 v -8.56403 c -2.64e-4,-1.12025 0.903023,-2.02354 2.0235331,-2.02354 z"
         id="path2528"
         style="fill:#7d4698;stroke-width:0.264583" /><path
         d="m 85.396523,149.85669 h 2.5654 c 0.939535,0 1.69836,0.75883 1.69836,1.66212 v 9.17839 c 0,1.19248 0.07223,1.66212 -1.373187,1.66212 -2.85459,0 -4.155281,1.51765 -4.155281,3.17976 v 15.50167 c 0,0.72285 -0.686594,1.33694 -1.51765,1.33694 h -9.214644 c -0.831056,0 -1.51765,-0.61409 -1.51765,-1.33694 v -17.66993 c -0.01,-0.31073 -0.0039,-0.76944 0.03625,-1.0115 0.505883,-6.5405 5.637617,-11.7734 12.1412,-12.43039 0.218014,-0.022 0.989391,-0.0722 1.337204,-0.0722 z"
         id="path2532"
         style="fill:#7d4698;stroke-width:0.264583" /><g
         id="text1"
         transform="matrix(0.95904537,0,0,0.95904537,-251.10518,-402.18808)"
         style="fill:#abcd03;fill-opacity:1"><path
           style="color:#000000;-inkscape-font-specification:'NotoSansM Nerd Font Mono, Normal';fill:#abcd03;fill-opacity:1;stroke-linecap:round;stroke-linejoin:round;-inkscape-stroke:none;paint-order:stroke fill markers"
           d="m 430.34766,569.72461 a 1.0428093,1.0428093 0 0 0 -1.02735,0.86133 l -1.11914,6.33789 -6.3418,1.39844 a 1.0428093,1.0428093 0 0 0 -0.81835,1.01757 v 4.64844 a 1.0428093,1.0428093 0 0 0 1.04296,1.04297 h 5.41211 v 11.24805 c 0,2.52912 0.42961,4.66782 1.36719,6.38672 a 1.0428093,1.0428093 0 0 0 0.006,0.008 c 0.93224,1.67026 2.35062,2.94585 4.15039,3.75 a 1.0428093,1.0428093 0 0 0 0.0254,0.01 c 1.81866,0.75778 3.98488,1.11329 6.49414,1.11328 1.22167,1e-5 2.45917,-0.0907 3.71094,-0.26953 1.30244,-0.18115 2.61695,-0.48778 3.94336,-0.91797 a 1.0428093,1.0428093 0 0 0 0.72266,-0.99218 v -5.88672 a 1.0428093,1.0428093 0 0 0 -1.22266,-1.02735 c -1.37401,0.24045 -2.48913,0.42998 -3.3418,0.56641 -0.8093,0.12949 -1.59689,0.19336 -2.36523,0.19336 -0.80156,0 -1.51975,-0.10749 -2.16406,-0.3125 -0.54926,-0.17477 -0.92545,-0.46021 -1.25,-0.92969 -0.27697,-0.43056 -0.50196,-1.24572 -0.50196,-2.46679 v -10.47266 h 9.54492 a 1.0428093,1.0428093 0 0 0 1.04102,-1.04297 v -6.19726 a 1.0428093,1.0428093 0 0 0 -1.04102,-1.04297 h -9.54492 v -5.98047 a 1.0428093,1.0428093 0 0 0 -1.04297,-1.04297 z m 0.875,2.08594 h 3.76171 v 5.98047 a 1.0428093,1.0428093 0 0 0 1.04297,1.04296 h 9.54493 v 4.11133 h -9.54493 a 1.0428093,1.0428093 0 0 0 -1.04297,1.04297 v 11.51563 c 0,1.45854 0.2235,2.66701 0.83985,3.61523 a 1.0428093,1.0428093 0 0 0 0.0137,0.0215 c 0.56866,0.83112 1.39095,1.44044 2.35156,1.7461 0.87051,0.27698 1.80817,0.41211 2.79688,0.41211 0.88419,0 1.78126,-0.0748 2.69336,-0.22071 0.55382,-0.0886 1.38919,-0.23306 2.15039,-0.36328 v 3.83008 c -0.9677,0.27863 -1.93185,0.53752 -2.8711,0.66797 a 1.0428093,1.0428093 0 0 0 -0.004,0 c -1.15819,0.16546 -2.29658,0.24805 -3.41602,0.24805 -2.30441,0 -4.19311,-0.33113 -5.67773,-0.94727 -1.42735,-0.64017 -2.44783,-1.56503 -3.16602,-2.84765 -0.71496,-1.31076 -1.11328,-3.09593 -1.11328,-5.38672 V 583.9883 a 1.0428093,1.0428093 0 0 0 -1.04297,-1.04297 h -5.41211 v -2.76758 l 6.20508,-1.36914 a 1.0428093,1.0428093 0 0 0 0.80274,-0.83593 z m -61.14258,4.36914 c -3.60825,0 -6.62305,1.48295 -8.68946,4.30078 a 1.0428093,1.0428093 0 0 0 -0.006,0.006 c -2.03117,2.82106 -2.98438,6.64893 -2.98438,11.40234 0,4.72265 0.97366,8.54026 3.04102,11.35938 2.06818,2.82025 5.10224,4.29882 8.74218,4.29882 1.75123,0 3.37737,-0.3384 4.83594,-1.02929 a 1.0428093,1.0428093 0 0 0 0.0195,-0.01 c 0.68803,-0.34401 1.32144,-0.79586 1.91797,-1.31054 -0.004,0.19641 -0.0176,0.38408 -0.0176,0.58398 v 0.56836 c 0,1.81105 -0.45374,2.88925 -1.22851,3.53906 a 1.0428093,1.0428093 0 0 0 -0.0274,0.0234 c -0.74642,0.6718 -2.17351,1.14533 -4.3789,1.17773 a 1.0428093,1.0428093 0 0 0 -0.008,0 c -1.41921,0.0323 -2.93548,-0.12761 -4.55078,-0.49023 -1.62256,-0.36425 -3.26829,-0.89659 -4.9375,-1.59766 a 1.0428093,1.0428093 0 0 0 -1.44531,0.96289 v 7.02344 a 1.0428093,1.0428093 0 0 0 0.66797,0.97266 c 1.68205,0.64418 3.35665,1.0946 5.01953,1.34765 1.63146,0.24827 3.21693,0.375 4.75391,0.375 3.44163,0 6.34041,-0.50955 8.69336,-1.59179 2.33528,-1.03976 4.14897,-2.63269 5.32617,-4.7168 v -0.002 c 1.17458,-2.04681 1.74023,-4.51118 1.74023,-7.33399 v -28.24804 a 1.0428093,1.0428093 0 0 0 -1.04297,-1.04297 h -5.67968 a 1.0428093,1.0428093 0 0 0 -0.95899,0.63281 l -0.9707,2.26172 c -0.833,-0.90909 -1.73837,-1.70821 -2.79297,-2.25196 -1.4756,-0.81321 -3.17554,-1.21093 -5.03906,-1.21093 z m 34.1875,0.0527 c -2.96909,0 -5.57984,0.63991 -7.76172,1.95508 -2.16921,1.27289 -3.84028,3.11809 -4.95313,5.45508 -1.1111,2.3333 -1.65039,5.04275 -1.65039,8.09179 0,3.2996 0.6277,6.16872 1.9336,8.55665 a 1.0428093,1.0428093 0 0 0 0.008,0.0117 c 1.33737,2.37756 3.28566,4.21212 5.76562,5.4336 2.48376,1.22334 5.45435,1.81054 8.87891,1.81054 1.64517,10e-6 3.29015,-0.16252 4.93164,-0.48242 1.71877,-0.29318 3.38577,-0.84229 4.98633,-1.64258 a 1.0428093,1.0428093 0 0 0 0.57617,-0.93164 v -6.04296 a 1.0428093,1.0428093 0 0 0 -1.40234,-0.97852 c -1.64727,0.60512 -3.2042,1.07158 -4.66602,1.4043 -1.4155,0.29574 -2.75166,0.44336 -4.01172,0.44336 -1.44314,0 -2.74832,-0.20968 -3.93359,-0.61329 -1.15747,-0.42808 -2.03271,-1.02708 -2.69531,-1.80078 -0.39968,-0.51443 -0.63991,-1.12738 -0.80274,-1.80078 h 17.29492 a 1.0428093,1.0428093 0 0 0 1.04297,-1.04297 v -3.71875 c 0,-2.84259 -0.52459,-5.33592 -1.61132,-7.43945 -1.04861,-2.13035 -2.62301,-3.80337 -4.65625,-4.93359 -2.04258,-1.16973 -4.48733,-1.73438 -7.27344,-1.73438 z m -34.1875,2.0332 c 1.57542,0 2.9022,0.32574 4.04101,0.95508 a 1.0428093,1.0428093 0 0 0 0.0293,0.0156 c 1.1817,0.606 2.19971,1.5099 3.08008,2.76758 a 1.0428093,1.0428093 0 0 0 0.85547,0.44531 h 0.20508 a 1.0428093,1.0428093 0 0 0 0.95898,-0.63281 l 1.2793,-2.98243 h 3.94922 V 606.039 c 0,2.54725 -0.5016,4.62771 -1.46094,6.29883 a 1.0428093,1.0428093 0 0 0 -0.006,0.006 c -0.95608,1.69626 -2.37372,2.95885 -4.36914,3.8457 a 1.0428093,1.0428093 0 0 0 -0.0117,0.006 c -1.98431,0.91342 -4.59057,1.40235 -7.82617,1.40235 -1.42382,0 -2.90354,-0.11589 -4.43946,-0.34961 -1.28485,-0.19553 -2.59717,-0.59253 -3.91796,-1.05469 v -4.80078 c 1.28451,0.47184 2.56914,0.95649 3.84179,1.24219 1.75864,0.39479 3.44424,0.57761 5.05469,0.54101 2.46368,-0.0373 4.39933,-0.52652 5.7168,-1.70312 1.35071,-1.14109 1.96484,-2.9474 1.96484,-5.12305 v -0.56836 c 0,-0.56215 0.0162,-1.10528 0.0488,-1.63086 1.6e-4,-0.003 -1.6e-4,-0.005 0,-0.008 0.0667,-0.54155 0.1198,-1.05808 0.1543,-1.54102 a 1.0428093,1.0428093 0 0 0 -1.03907,-1.11719 h -0.20703 a 1.0428093,1.0428093 0 0 0 -0.85547,0.44532 c -0.87819,1.25456 -1.87482,2.13581 -3.00781,2.70508 -1.15622,0.54634 -2.45351,0.82617 -3.93555,0.82617 -3.10794,0 -5.34165,-1.10333 -7.06054,-3.44727 -1.71972,-2.34507 -2.63867,-5.68981 -2.63868,-10.125 1e-5,-4.47121 0.90625,-7.83669 2.5918,-10.17969 1.72017,-2.34301 3.93527,-3.44335 7.00391,-3.44336 z m 34.1875,0.0527 c 2.51102,0 4.57256,0.50021 6.24609,1.46094 a 1.0428093,1.0428093 0 0 0 0.0137,0.008 c 1.68093,0.93384 2.92575,2.25173 3.80469,4.04101 a 1.0428093,1.0428093 0 0 0 0.01,0.0195 c 0.90634,1.75017 1.38086,3.89996 1.38086,6.49218 v 2.67578 h -17.4961 a 1.0428093,1.0428093 0 0 0 -1.04297,1.09571 c 0.0778,1.55544 0.56399,2.96193 1.46094,4.10351 a 1.0428093,1.0428093 0 0 0 0.0273,0.0312 c 0.91798,1.07762 2.13573,1.88635 3.58399,2.41993 a 1.0428093,1.0428093 0 0 0 0.0215,0.008 c 1.42754,0.48836 2.97534,0.72851 4.625,0.72851 1.4229,0 2.905,-0.16548 4.44727,-0.48828 a 1.0428093,1.0428093 0 0 0 0.0176,-0.004 c 1.12003,-0.25456 2.32869,-0.66372 3.52929,-1.06055 v 3.89648 c -1.24962,0.56796 -2.51471,1.04141 -3.83203,1.26563 a 1.0428093,1.0428093 0 0 0 -0.0254,0.004 c -1.51941,0.29728 -3.0351,0.44532 -4.55078,0.44532 -3.18561,0 -5.82744,-0.54681 -7.95703,-1.59571 -2.13204,-1.0501 -3.72785,-2.55476 -4.86914,-4.58203 -1.10147,-2.01759 -1.67578,-4.51732 -1.67578,-7.54883 0,-2.8037 0.49464,-5.1907 1.44922,-7.19531 0.952,-1.9992 2.30681,-3.48852 4.1289,-4.55664 a 1.0428093,1.0428093 0 0 0 0.0117,-0.008 c 1.81071,-1.09267 4.01666,-1.65625 6.69141,-1.65625 z m 0.15429,3.64648 c -1.80789,0 -3.45973,0.62453 -4.77343,1.81641 -1.36185,1.20073 -2.11819,2.96159 -2.30664,5.07227 a 1.0428093,1.0428093 0 0 0 1.03906,1.13476 h 11.67187 a 1.0428093,1.0428093 0 0 0 1.04102,-1.04297 c 0,-1.37244 -0.29118,-2.61174 -0.91016,-3.65625 -0.56242,-1.03834 -1.35585,-1.88271 -2.34375,-2.45898 -1.00049,-0.58363 -2.16421,-0.86524 -3.41797,-0.86524 z m -31.65625,0.46485 c -2.2545,0 -4.16312,0.94381 -5.27148,2.70898 a 1.0428093,1.0428093 0 0 0 -0.004,0.006 c -1.04718,1.6916 -1.49804,3.9429 -1.49804,6.74414 0,2.8386 0.46823,5.11638 1.55859,6.8125 a 1.0428093,1.0428093 0 0 0 0.01,0.0156 c 1.15148,1.72722 3.08266,2.63281 5.36132,2.63281 1.11827,0 2.12723,-0.19252 2.9961,-0.62695 0.82988,-0.41495 1.538,-1.01464 2.08008,-1.76368 0.57317,-0.77896 0.97336,-1.69057 1.20703,-2.70312 a 1.0428093,1.0428093 0 0 0 0.002,-0.01 c 0.22608,-1.01737 0.33399,-2.1249 0.33399,-3.32422 V 591.992 c 0,-2.1004 -0.20739,-3.82949 -0.67383,-5.23047 -3.7e-4,-10e-4 3.6e-4,-0.003 0,-0.004 -0.43053,-1.39308 -1.18192,-2.53224 -2.25782,-3.26562 -1.04175,-0.73331 -2.35528,-1.0625 -3.84375,-1.0625 z m 31.65625,1.61914 c 0.94964,0 1.71515,0.20167 2.36719,0.58203 0.65983,0.3849 1.1692,0.91523 1.57031,1.66016 a 1.0428093,1.0428093 0 0 0 0.0234,0.041 c 0.24206,0.40343 0.27407,1.02421 0.37696,1.57031 h -9.07032 c 0.2647,-1.08133 0.6695,-1.97168 1.3418,-2.5625 a 1.0428093,1.0428093 0 0 0 0.0137,-0.0117 c 0.95769,-0.87062 2.01994,-1.27929 3.37695,-1.27929 z m -31.65625,0.46484 c 1.19119,0 2.04347,0.25621 2.65235,0.6875 a 1.0428093,1.0428093 0 0 0 0.0156,0.0117 c 0.6365,0.43281 1.11966,1.10558 1.44727,2.17773 a 1.0428093,1.0428093 0 0 0 0.008,0.0254 c 0.3591,1.07728 0.56641,2.61561 0.56641,4.57617 v 0.92968 c 0,1.07149 -0.0986,2.02822 -0.28516,2.86915 -0.1792,0.77403 -0.46486,1.40809 -0.85351,1.93554 a 1.0428093,1.0428093 0 0 0 -0.006,0.008 c -0.35263,0.48825 -0.78062,0.85027 -1.32618,1.12305 -0.50825,0.25413 -1.18393,0.40625 -2.0625,0.40625 -1.78127,0 -2.84489,-0.53794 -3.62109,-1.69922 -0.76581,-1.19621 -1.22461,-3.08026 -1.22461,-5.67578 0,-2.56953 0.44443,-4.44614 1.1875,-5.64648 0.75043,-1.19201 1.76533,-1.72852 3.50195,-1.72852 z"
           id="path1" /><path
           style="color:#000000;-inkscape-font-specification:'NotoSansM Nerd Font Mono, Normal';fill:#abcd03;fill-opacity:1;stroke-linecap:round;stroke-linejoin:round;-inkscape-stroke:none;paint-order:stroke fill markers"
           d="m 370.80387,618.64006 q -2.2206,0 -4.59614,-0.36149 -2.37553,-0.3615 -4.8027,-1.29105 v -7.02331 q 2.5821,1.08448 5.11256,1.65254 2.53045,0.56806 4.8027,0.51642 3.51166,-0.0516 5.06092,-1.44598 1.6009,-1.34269 1.6009,-4.33792 v -0.56807 q 0,-0.87791 0.0516,-1.70418 0.10329,-0.82627 0.15493,-1.54926 h -0.20657 q -1.44598,2.06568 -3.40837,3.04688 -1.9624,0.92955 -4.38957,0.92955 -5.06092,0 -7.90123,-3.87315 -2.84031,-3.87315 -2.84031,-10.74153 0,-6.92003 2.78867,-10.79318 2.84031,-3.87315 7.84958,-3.87315 2.5821,0 4.5445,1.08448 2.01404,1.03284 3.46001,3.09852 h 0.20657 l 1.54926,-3.61494 h 5.68062 v 28.24817 q 0,4.02808 -1.6009,6.81675 -1.6009,2.84031 -4.85435,4.28628 -3.25344,1.49762 -8.26272,1.49762 z m 2.11732,-18.33291 q 1.49762,0 2.53046,-0.51642 1.03284,-0.51642 1.70419,-1.44597 0.72299,-0.9812 1.03284,-2.32389 0.30985,-1.39434 0.30985,-3.09852 v -0.92956 q 0,-3.04688 -0.6197,-4.90599 -0.56807,-1.85911 -1.85912,-2.73702 -1.2394,-0.87792 -3.25344,-0.87792 -2.99524,0 -4.38957,2.22061 -1.34269,2.16896 -1.34269,6.19704 0,4.07972 1.39433,6.24868 1.44598,2.16896 4.49285,2.16896 z m 33.56732,6.19704 q -4.95763,0 -8.41764,-1.70418 -3.46002,-1.70419 -5.31913,-5.00928 -1.80747,-3.30509 -1.80747,-8.05615 0,-4.38957 1.54926,-7.64301 1.54926,-3.25345 4.5445,-5.00928 2.99523,-1.80747 7.22988,-1.80747 3.97643,0 6.7651,1.6009 2.78867,1.54926 4.23464,4.49286 1.49762,2.89195 1.49762,6.97167 v 3.71822 h -18.53948 q 0.10329,2.06568 1.23941,3.51166 1.18777,1.39433 3.15016,2.11732 1.9624,0.67134 4.28629,0.67134 2.01404,0 4.23464,-0.46477 2.27225,-0.51642 4.80271,-1.44598 v 6.04211 q -2.27225,1.13613 -4.69942,1.54926 -2.37554,0.46478 -4.75107,0.46478 z m 3.5633,-17.55828 q 0,-1.85911 -0.77463,-3.15016 -0.72299,-1.34269 -1.9624,-2.06568 -1.2394,-0.72299 -2.89195,-0.72299 -2.37553,0 -4.07972,1.54926 -1.70418,1.49762 -1.96239,4.38957 z m 29.4876,17.55828 q -3.61494,0 -6.09376,-1.03284 -2.42717,-1.08448 -3.66658,-3.30509 -1.23941,-2.27224 -1.23941,-5.88718 v -12.2908 h -6.45524 v -4.64778 l 7.02331,-1.54926 1.2394,-7.02331 h 5.68062 v 7.02331 h 10.58661 v 6.19704 h -10.58661 v 11.51617 q 0,2.01403 0.67135,3.04687 0.67135,0.9812 1.80747,1.3427 1.13612,0.36149 2.47882,0.36149 1.2394,0 2.53045,-0.20657 1.29105,-0.20657 3.35673,-0.56806 v 5.88719 q -1.91075,0.6197 -3.76986,0.87791 -1.80747,0.25821 -3.5633,0.25821 z"
           id="path2" /></g></g></g></svg>
